<?xml version="1.0" standalone="no"?>
<!DOCTYPE svg PUBLIC "-//W3C//DTD SVG 20010904//EN"
 "http://www.w3.org/TR/2001/REC-SVG-20010904/DTD/svg10.dtd">
<svg version="1.0" xmlns="http://www.w3.org/2000/svg"
 width="256.000000pt" height="256.000000pt" viewBox="0 0 256.000000 256.000000"
 preserveAspectRatio="xMidYMid meet">

<g transform="translate(0.000000,256.000000) scale(0.100000,-0.100000)"
fill="#000000" stroke="none">
<path d="M0 1280 l0 -1280 1280 0 1280 0 0 1280 0 1280 -1280 0 -1280 0 0
-1280z m1035 761 c75 -37 147 -111 183 -189 23 -48 27 -71 27 -147 0 -82 -3
-97 -33 -157 -75 -153 -242 -240 -398 -208 -122 25 -217 98 -271 208 -25 51
-28 68 -28 157 0 88 3 107 27 157 87 186 312 268 493 179z m761 12 c53 -28 99
-76 126 -132 18 -36 23 -64 23 -126 0 -96 -23 -153 -84 -213 -60 -58 -110 -72
-258 -72 l-123 0 0 -90 0 -91 -82 3 -83 3 -3 373 -2 374 222 -4 c206 -3 226
-5 264 -25z m198 -584 c46 -36 28 -119 -29 -133 -29 -7 -79 15 -89 39 -12 33
-5 66 19 90 30 30 64 32 99 4z m-1014 -235 c71 -21 146 -69 178 -115 11 -17 6
-23 -58 -65 l-70 -47 -42 29 c-36 25 -51 29 -109 29 -59 0 -73 -4 -110 -30
-55 -39 -84 -94 -83 -160 1 -60 21 -101 68 -143 85 -74 225 -60 271 28 l16 30
-76 0 -75 0 0 70 0 70 165 0 165 0 6 -27 c10 -40 -13 -167 -40 -221 -33 -65
-101 -125 -172 -152 -77 -29 -213 -25 -287 8 -65 29 -148 110 -183 179 -26 53
-29 67 -29 158 0 87 3 107 26 156 80 170 263 255 439 203z m778 -3 c78 -24
182 -96 182 -125 0 -9 -103 -83 -131 -94 -4 -2 -27 9 -50 25 -34 23 -53 28
-103 28 -80 0 -130 -25 -168 -84 -26 -41 -29 -53 -26 -112 3 -54 9 -73 32
-103 53 -70 127 -97 207 -76 41 11 109 66 109 89 0 7 -27 11 -75 11 l-76 0 3
68 3 67 165 0 165 0 3 -42 c11 -145 -60 -277 -181 -341 -48 -25 -61 -27 -162
-27 -96 0 -116 3 -158 24 -75 37 -142 104 -179 179 -30 61 -33 74 -33 162 1
84 4 102 30 155 82 170 266 251 443 196z"/>
<path d="M855 1895 c-5 -2 -22 -6 -37 -9 -37 -8 -85 -51 -108 -97 -40 -77 -15
-181 55 -235 30 -22 50 -29 101 -32 54 -4 70 -1 107 21 50 30 70 55 88 116 23
78 -21 180 -93 214 -35 16 -96 29 -113 22z"/>
<path d="M1480 1795 l0 -105 118 0 c111 0 120 2 140 23 28 30 37 77 22 121
-19 58 -39 66 -167 66 l-113 0 0 -105z"/>
</g>
</svg>
