<?xml version="1.0" standalone="no"?>
<!DOCTYPE svg PUBLIC "-//W3C//DTD SVG 20010904//EN"
 "http://www.w3.org/TR/2001/REC-SVG-20010904/DTD/svg10.dtd">
<svg version="1.0" xmlns="http://www.w3.org/2000/svg"
 width="1280.000000pt" height="1280.000000pt" viewBox="0 0 1280.000000 1280.000000"
 preserveAspectRatio="xMidYMid meet">

<g transform="translate(0.000000,1280.000000) scale(0.100000,-0.100000)"
fill="#000000" stroke="none">
<path d="M6185 12106 c-32 -33 -54 -81 -75 -162 l-10 -42 -148 -5 c-151 -5
-358 -35 -566 -83 -177 -41 -188 -57 -44 -68 169 -11 402 -61 546 -116 79 -30
113 -59 55 -46 -177 39 -452 49 -753 27 -310 -23 -472 -53 -780 -143 -296 -86
-756 -319 -1050 -531 -197 -142 -445 -373 -557 -518 -50 -66 -97 -149 -84
-149 6 0 6 -11 -1 -31 -6 -16 -8 -32 -5 -35 3 -3 8 4 12 16 4 14 12 19 23 16
11 -4 62 26 137 79 99 69 214 134 390 218 31 15 9 -3 -87 -72 -104 -75 -308
-260 -396 -360 -35 -39 -70 -71 -77 -71 -8 0 -47 36 -87 81 -80 89 -253 234
-305 255 -106 45 -167 -32 -180 -226 -7 -112 11 -355 43 -566 41 -273 41 -252
1 -346 -83 -192 -147 -507 -123 -602 9 -37 23 -33 69 20 22 25 77 73 121 106
74 55 81 58 93 42 21 -29 15 -69 -21 -147 -55 -117 -96 -223 -133 -342 -44
-144 -104 -377 -98 -383 3 -3 1 -10 -4 -16 -9 -11 -29 -129 -53 -306 -8 -61
-12 -195 -11 -370 2 -370 22 -500 129 -821 112 -337 286 -607 441 -682 40 -20
44 -20 60 -5 12 12 13 21 6 30 -7 9 -8 73 -2 193 9 209 28 303 90 434 35 75
42 84 51 67 16 -28 2 -375 -17 -463 -23 -101 -83 -277 -126 -371 -73 -158
-217 -380 -306 -470 -29 -30 -53 -58 -53 -62 0 -17 77 -35 150 -34 56 0 89 6
130 24 79 34 186 106 253 170 31 31 60 54 62 51 3 -2 5 -32 5 -65 0 -61 25
-366 36 -442 5 -37 1 -48 -51 -128 -68 -104 -127 -239 -119 -271 3 -13 27 -36
52 -53 213 -136 389 -241 496 -294 110 -55 126 -66 121 -83 -40 -129 18 -231
145 -256 33 -6 60 -15 60 -18 0 -20 -55 -287 -72 -351 -96 -359 -216 -722
-373 -1126 -166 -427 -250 -659 -340 -939 -47 -148 -97 -301 -110 -340 -92
-277 -245 -848 -245 -914 0 -8 52 -11 178 -11 l178 0 13 82 c30 193 101 400
190 553 44 76 122 196 138 213 7 8 18 23 25 35 14 26 163 222 196 257 58 62
314 424 565 800 165 246 221 335 292 465 21 39 40 72 41 74 2 2 12 -7 23 -20
14 -17 17 -29 10 -46 -22 -59 -116 -235 -158 -298 -26 -38 -94 -140 -152 -225
-57 -85 -134 -202 -169 -260 -67 -110 -120 -189 -359 -535 -192 -278 -249
-373 -380 -638 -93 -188 -191 -418 -191 -448 0 -5 20 -9 44 -9 l43 0 23 63
c60 168 163 385 261 548 110 185 457 705 464 697 2 -2 -8 -43 -21 -93 -13 -49
-23 -100 -24 -112 0 -14 -14 -29 -45 -47 -52 -31 -69 -59 -84 -141 -16 -87
-14 -292 5 -383 14 -72 14 -90 0 -201 -9 -68 -16 -129 -16 -136 0 -8 -18 -35
-40 -60 -45 -52 -54 -68 -64 -108 l-6 -27 1792 1 1793 0 -140 39 c-148 41
-180 46 -190 30 -3 -5 -15 -15 -26 -21 -20 -10 -20 -9 -5 13 14 22 14 26 -2
49 -12 17 -17 44 -17 89 0 54 6 76 35 135 45 89 192 240 305 313 44 29 85 55
90 60 34 25 176 92 208 97 32 6 42 4 65 -17 15 -14 56 -47 92 -74 118 -88 241
-218 363 -383 45 -61 48 -67 45 -119 l-3 -55 -120 -49 c-122 -50 -208 -80
-280 -97 -26 -6 357 -9 1067 -10 l1107 -1 7 46 c10 70 -2 139 -35 201 l-30 55
24 26 c39 42 55 85 55 151 0 174 -129 357 -299 427 -76 30 -99 35 -211 41 -78
4 -129 -3 -232 -33 -13 -4 -23 16 -52 103 -61 190 -201 691 -194 698 2 2 26
-18 54 -43 121 -112 256 -214 474 -359 195 -130 291 -186 460 -266 620 -294
1223 -435 1815 -427 468 7 547 5 605 -13 74 -22 105 -55 103 -108 -4 -89 -102
-243 -262 -411 l-83 -88 54 0 54 0 83 82 c146 146 212 264 219 396 l5 82 -45
43 c-25 23 -52 47 -60 54 -42 32 -98 36 -553 43 -475 8 -546 13 -815 61 -133
24 -317 72 -475 124 -414 137 -940 397 -1019 504 -14 18 -82 94 -153 168 -70
75 -134 144 -141 155 -8 10 -22 58 -32 106 -10 48 -30 137 -43 197 -86 379
-95 615 -41 1062 17 142 24 249 22 307 l-4 89 37 26 c20 14 47 41 59 59 23 33
23 45 5 152 -5 32 -2 38 40 70 25 19 45 40 45 47 0 7 18 26 40 44 22 18 43 41
46 53 4 12 24 40 44 63 20 23 68 102 105 175 37 73 81 147 97 164 29 31 81
109 159 239 23 39 55 84 71 101 37 40 34 52 -36 126 -29 31 -50 61 -47 66 3 4
20 16 36 25 105 56 277 160 315 190 61 49 285 291 327 353 43 64 103 243 137
404 66 319 1 629 -212 1012 -62 110 -153 248 -178 269 -8 6 -14 20 -14 31 0
16 5 18 38 12 20 -4 38 -8 40 -9 6 -5 96 27 111 39 22 17 43 75 50 135 6 54 7
55 63 88 107 62 188 174 188 258 0 44 -32 110 -62 126 -12 6 -45 11 -74 10
l-52 -1 38 58 c20 31 49 78 63 103 134 245 153 668 40 921 -25 56 -25 58 -13
170 28 273 22 867 -10 1029 -57 281 -99 356 -186 335 -42 -11 -119 -94 -235
-255 -15 -20 -78 -128 -140 -241 l-114 -205 -6 125 c-15 292 -105 558 -278
815 -112 167 -163 230 -280 345 -170 169 -385 320 -569 401 -109 48 -285 109
-313 109 -20 0 -26 -24 -9 -35 5 -3 15 -15 21 -26 10 -19 9 -20 -12 -8 -12 6
-43 26 -68 44 -180 128 -623 286 -977 349 -244 44 -482 68 -710 73 l-232 5
-21 67 c-11 36 -26 87 -33 114 -7 26 -16 47 -21 47 -5 0 -23 -15 -42 -34z
m-95 -281 c7 -8 10 -24 7 -36 -5 -20 3 -93 19 -154 l7 -29 -26 17 c-53 34
-206 91 -332 122 -147 36 -158 30 95 60 74 9 146 20 160 25 39 12 56 11 70 -5z
m535 0 c439 -29 631 -59 920 -141 426 -123 559 -186 770 -372 66 -58 99 -95
123 -139 17 -34 39 -64 48 -67 31 -12 44 -6 44 20 0 36 -46 171 -77 223 -14
24 -21 42 -17 40 5 -2 34 -16 64 -30 30 -15 95 -45 143 -68 153 -71 250 -142
410 -300 147 -144 222 -229 289 -326 44 -65 133 -221 154 -271 9 -21 25 -59
36 -84 98 -217 148 -616 93 -748 -8 -18 -35 -59 -60 -91 -25 -33 -45 -64 -45
-69 0 -11 -74 -62 -90 -62 -5 0 -10 -10 -10 -21 0 -20 4 -21 45 -16 25 4 98
27 162 53 65 25 128 48 140 51 43 10 70 -5 87 -47 35 -87 12 -221 -94 -560
-27 -85 -51 -165 -54 -177 -3 -13 -9 -33 -12 -44 -4 -13 -2 -19 4 -15 6 3 4
-16 -4 -46 -7 -29 -14 -57 -14 -62 0 -15 76 86 110 147 34 61 47 68 73 39 40
-44 64 -152 97 -431 16 -140 16 -165 4 -269 -24 -194 -70 -330 -144 -431 -31
-43 -33 -44 -47 -25 -25 33 -121 231 -148 306 -46 129 -115 623 -115 829 0
154 -51 408 -112 554 -99 239 -213 401 -353 502 l-29 21 60 29 c87 43 143 84
207 152 89 97 163 264 122 278 -6 2 -30 -31 -55 -73 -68 -115 -221 -252 -337
-300 -201 -85 -556 -67 -763 38 -30 15 -60 28 -67 28 -33 0 -16 21 40 48 89
44 171 100 258 179 184 166 262 320 275 543 5 98 -5 142 -26 110 -5 -8 -10
-24 -10 -35 -1 -43 -30 -157 -60 -231 -70 -175 -221 -347 -407 -463 -118 -74
-274 -123 -438 -139 l-59 -5 39 34 c22 19 42 36 45 39 3 3 39 30 80 61 220
164 370 352 436 549 27 79 27 341 1 418 -22 63 -48 68 -58 12 -6 -37 -72 -174
-88 -184 -5 -3 -12 18 -16 46 -31 237 -235 521 -455 633 -92 47 -252 71 -301
44 -18 -9 -15 -15 45 -88 98 -117 193 -344 226 -539 11 -69 8 -107 -6 -66 -16
46 -80 174 -116 231 -48 77 -182 204 -303 288 -101 70 -246 145 -392 204 -159
63 -410 169 -444 186 -36 19 -99 84 -99 103 0 15 6 15 275 -3z m-674 -332
c236 -32 249 -38 314 -135 22 -32 73 -91 113 -130 l73 -71 -27 -28 -26 -28 96
-107 c53 -59 94 -109 92 -112 -3 -2 -24 11 -48 30 -148 118 -328 199 -509 228
-101 16 -280 9 -339 -14 -25 -10 -64 -25 -87 -33 -24 -9 -43 -19 -43 -23 0 -5
37 -26 83 -49 120 -58 174 -111 246 -238 33 -60 74 -141 91 -182 54 -125 130
-351 119 -351 -6 0 -47 36 -91 80 -44 44 -84 80 -89 80 -6 0 -7 -35 -5 -81 14
-218 201 -476 449 -621 40 -23 74 -43 76 -45 25 -19 -154 0 -262 28 -104 26
-190 61 -280 111 -76 43 -276 192 -397 296 -82 70 -157 118 -167 108 -10 -10
363 -367 467 -448 l35 -27 -24 -7 c-50 -15 -238 -113 -288 -151 -29 -21 -126
-109 -215 -193 -90 -85 -234 -207 -319 -272 -85 -64 -161 -124 -169 -133 -14
-16 -13 -17 10 -10 35 11 114 51 183 92 32 19 60 33 63 30 3 -3 -5 -25 -17
-48 -68 -134 -140 -378 -159 -539 -8 -67 -50 -223 -106 -399 -4 -13 -7 -13
-18 0 -28 29 -175 268 -228 370 -109 207 -215 348 -318 423 -60 44 -86 50
-112 24 -17 -17 -19 -28 -13 -77 3 -31 15 -94 26 -141 11 -47 23 -111 26 -144
l6 -58 -29 15 c-16 8 -48 20 -71 26 -24 7 -43 16 -43 22 0 37 -294 389 -571
684 -41 44 -129 138 -195 210 -65 71 -199 213 -296 314 -98 102 -178 190 -178
197 0 22 247 255 391 369 41 32 81 64 89 72 81 71 168 122 395 233 111 55 205
107 209 116 6 15 0 16 -57 10 -221 -22 -625 -173 -838 -312 -41 -27 -80 -53
-87 -57 -11 -7 -12 -5 -4 10 15 28 215 219 327 312 55 46 109 90 120 100 149
125 546 358 810 474 238 106 525 179 865 223 76 9 194 12 425 9 279 -4 347 -8
526 -32z m2193 -1667 c19 -13 42 -31 51 -40 26 -26 103 -62 180 -84 180 -53
354 -65 505 -36 l83 15 49 -48 c116 -113 243 -301 295 -438 80 -210 108 -345
123 -593 19 -332 66 -665 117 -842 13 -47 49 -134 80 -195 31 -60 74 -146 96
-190 22 -44 86 -141 142 -215 159 -213 195 -270 313 -510 120 -245 123 -253
147 -414 29 -198 -4 -456 -84 -654 -27 -66 -171 -283 -171 -256 0 4 -12 -6
-27 -21 -16 -15 -59 -51 -98 -80 -67 -49 -118 -83 -285 -189 -68 -44 -402
-212 -525 -264 -546 -235 -1241 -384 -1940 -418 l-140 -7 -60 30 c-33 16 -109
58 -170 93 -239 137 -545 261 -830 334 -398 102 -605 136 -985 161 -308 21
-570 17 -797 -11 l-52 -6 9 33 c28 105 43 265 43 462 0 114 2 207 6 207 3 0
42 -14 85 -31 43 -17 88 -28 99 -25 19 5 20 2 13 -137 -8 -163 -10 -183 -20
-216 -14 -40 7 -43 58 -7 86 61 140 138 200 286 15 36 31 74 36 85 60 132 90
238 121 433 20 118 22 173 22 402 -1 322 -8 528 -17 555 -8 22 -9 23 30 -32 9
-14 12 -13 27 2 9 9 17 28 17 41 0 14 9 42 20 64 11 22 20 50 21 62 0 22 1 22
9 3 l9 -20 1 20 c3 29 5 35 17 80 7 22 17 83 23 136 22 174 -16 350 -121 563
-27 54 -49 104 -49 110 0 7 13 37 30 67 46 83 107 281 145 472 43 220 106 411
191 579 28 55 287 317 380 384 59 42 228 128 306 155 32 11 42 10 85 -8 26
-11 100 -33 163 -48 94 -23 136 -28 235 -27 66 0 161 0 210 -1 328 -4 326 -4
385 27 73 37 160 58 240 57 147 -2 290 26 406 80 54 24 77 29 143 29 91 0 312
36 368 59 1 1 18 -10 37 -23z m2042 -536 c-3 -8 -12 -64 -21 -125 -17 -109
-63 -336 -70 -343 -2 -2 -29 17 -61 43 -32 26 -77 56 -101 66 -24 10 -43 20
-43 21 0 2 5 19 10 38 19 62 50 234 50 275 l0 40 120 0 c103 0 119 -2 116 -15z
m116 -17 c27 -35 28 -37 25 -172 -4 -159 -43 -441 -63 -441 -6 0 -30 15 -53
33 -36 28 -40 36 -35 62 3 17 12 64 19 105 8 41 24 145 36 230 11 85 23 170
25 188 3 17 8 32 12 32 4 -1 19 -17 34 -37z m-6893 -119 c116 -121 125 -146
69 -185 -18 -13 -63 -49 -101 -80 -37 -31 -103 -75 -147 -98 -95 -49 -245
-105 -264 -98 -15 6 -247 325 -295 407 -18 30 -41 70 -53 88 -22 36 -17 53 10
36 9 -6 49 -20 87 -30 144 -39 410 -19 523 40 26 14 52 25 58 25 7 1 57 -47
113 -105z m-849 21 c35 -74 61 -117 202 -328 55 -82 101 -154 104 -162 3 -7
-8 -21 -26 -32 -73 -42 -163 -242 -177 -390 -3 -35 -9 -63 -13 -63 -9 0 -83
205 -133 370 -50 161 -93 459 -77 534 10 50 61 136 81 136 5 0 22 -29 39 -65z
m-295 -107 c9 -51 23 -112 32 -135 8 -23 12 -46 8 -52 -3 -6 -32 -27 -63 -47
-31 -20 -67 -45 -79 -57 -13 -11 -25 -19 -27 -16 -9 9 47 253 74 322 5 15 14
38 20 52 5 14 11 25 14 25 2 0 11 -42 21 -92z m1942 -254 c3 -8 16 -19 28 -24
35 -13 151 -165 199 -260 24 -47 94 -168 156 -270 208 -340 279 -483 320 -646
22 -84 27 -282 10 -379 -15 -86 -32 -160 -40 -168 -4 -4 -15 20 -24 55 -22 77
-107 283 -148 358 -36 65 -107 160 -119 160 -14 0 -10 -47 6 -87 15 -35 42
-122 85 -274 32 -112 68 -307 80 -444 20 -207 9 -546 -23 -725 -56 -313 -117
-523 -194 -672 -31 -60 -60 -108 -64 -108 -16 0 -17 17 -3 70 28 107 11 410
-29 524 -26 76 -32 49 -29 -129 3 -96 2 -175 -1 -175 -4 0 -29 14 -57 30 -28
16 -53 30 -56 30 -8 0 -191 109 -268 160 -168 111 -332 265 -404 380 -23 35
-40 66 -38 67 2 2 50 -26 107 -63 93 -59 210 -120 352 -183 86 -39 207 -51
207 -21 0 6 -5 10 -12 10 -32 0 -306 142 -451 234 -174 110 -256 174 -419 323
-289 263 -520 554 -583 732 -33 94 8 78 155 -63 30 -29 75 -63 100 -76 48 -24
110 -42 110 -31 0 3 -30 56 -67 116 -82 136 -273 510 -273 535 0 10 7 25 15
34 8 8 15 17 15 20 0 12 115 203 171 283 33 49 73 107 87 131 15 23 29 42 33
42 3 0 28 -28 56 -62 70 -88 136 -162 215 -241 l69 -69 -30 -34 c-94 -106 -44
-278 144 -497 125 -147 264 -235 352 -225 39 4 40 30 2 47 -145 64 -350 270
-423 426 -20 40 -26 69 -26 117 1 56 4 65 26 82 26 18 72 19 117 1 26 -11 21
12 -10 52 -37 45 -56 65 -143 148 -102 98 -280 294 -280 308 0 7 32 21 71 31
87 22 296 124 366 178 29 22 68 64 88 94 20 30 41 54 48 54 25 0 197 -185 197
-211 0 -7 -10 -33 -22 -58 -29 -58 -35 -214 -19 -428 23 -301 215 -1054 322
-1267 39 -78 46 -85 54 -54 6 21 -1 62 -30 178 -2 8 -20 71 -40 140 -144 495
-231 982 -223 1256 5 193 10 196 180 92 53 -32 87 -47 99 -43 26 9 25 14 -21
69 -38 45 -54 86 -28 70 17 -11 5 59 -37 210 -19 71 -35 135 -35 143 0 18 19
16 27 -3z m6213 -295 c0 -153 -17 -274 -56 -394 -39 -118 -97 -245 -143 -311
-23 -33 -41 -67 -41 -77 0 -16 5 -18 40 -12 21 4 65 7 96 7 48 1 61 -3 76 -22
56 -69 -64 -219 -237 -295 -58 -26 -66 -49 -19 -61 29 -7 31 -31 8 -80 -23
-48 -45 -57 -129 -52 -100 7 -126 25 -177 122 l-41 80 24 15 c75 47 158 174
187 286 15 57 32 221 32 312 l0 78 50 29 c73 44 79 80 11 74 -39 -3 -39 -4
-28 64 l8 46 63 0 c59 -1 63 -3 59 -22 -16 -69 -59 -227 -89 -325 -20 -62 -33
-116 -29 -119 3 -4 14 -2 23 4 59 37 167 361 247 739 15 72 30 141 33 155 11
50 31 -103 32 -241z m-7888 -279 c113 -298 196 -480 303 -661 77 -129 108
-189 102 -196 -3 -2 -23 9 -45 25 -22 16 -61 37 -87 47 -46 17 -48 17 -73 -2
-38 -28 -40 -78 -7 -170 58 -165 171 -334 344 -518 42 -44 99 -106 127 -138
51 -58 171 -164 282 -249 49 -38 62 -54 62 -75 1 -36 41 -133 75 -183 45 -65
207 -222 291 -282 43 -31 115 -78 159 -105 l80 -49 3 -129 c2 -72 -2 -177 -8
-235 -12 -124 -50 -362 -59 -372 -4 -4 -61 -17 -128 -28 -67 -12 -170 -34
-230 -50 -59 -16 -111 -26 -114 -22 -3 4 -12 39 -20 77 -10 51 -14 154 -14
387 0 174 -3 320 -7 324 -11 10 -27 -38 -49 -146 -26 -126 -36 -382 -20 -485
7 -42 11 -79 9 -81 -10 -9 -128 217 -157 299 -68 193 -106 451 -98 667 5 153
29 288 70 390 8 19 18 44 22 55 5 11 9 23 9 26 1 3 9 13 19 23 34 35 8 60 -28
26 -75 -71 -150 -302 -170 -525 -10 -110 21 -365 65 -545 44 -173 111 -321
208 -458 29 -41 50 -78 45 -82 -4 -5 -32 -18 -61 -30 l-53 -23 -57 61 c-69 73
-125 101 -138 67 -4 -9 13 -34 44 -65 27 -28 55 -62 62 -76 12 -21 11 -27 -10
-49 -13 -14 -29 -25 -36 -25 -7 0 -14 -3 -16 -8 -4 -9 -136 -92 -148 -92 -11
0 -65 228 -80 340 -7 47 -20 257 -29 467 -16 381 -22 426 -51 397 -14 -14 -30
-163 -30 -280 l0 -92 -86 -78 c-95 -87 -147 -123 -256 -177 -74 -36 -148 -56
-148 -39 0 6 25 36 55 67 30 32 83 102 117 156 35 54 68 97 74 95 15 -6 47 51
40 70 -3 9 -1 12 4 9 6 -3 10 3 10 14 0 11 6 26 13 33 17 17 101 236 121 313
51 204 49 619 -6 809 -26 92 -47 83 -40 -18 l5 -74 -41 -49 c-44 -53 -100
-160 -125 -238 -40 -127 -58 -322 -36 -414 5 -24 7 -46 4 -49 -17 -17 -172
181 -229 294 -119 236 -221 554 -241 754 -4 36 -9 81 -10 100 -2 19 -7 116
-11 215 -14 386 44 729 213 1250 30 94 60 178 65 188 8 15 19 -8 54 -115 25
-73 68 -194 96 -268z m134 -2796 c-4 -9 -9 -15 -11 -12 -3 3 -3 13 1 22 4 9 9
15 11 12 3 -3 3 -13 -1 -22z m2419 -565 c83 -5 177 -14 210 -19 33 -5 90 -12
127 -15 37 -3 78 -9 92 -14 13 -6 42 -12 63 -15 21 -2 58 -9 83 -15 25 -6 88
-20 140 -32 300 -69 618 -182 865 -309 499 -257 805 -505 805 -655 0 -40 -60
-142 -130 -219 -30 -34 -68 -77 -84 -96 -15 -19 -25 -26 -21 -15 46 119 47
129 41 233 -3 56 -13 119 -21 139 -43 101 -250 319 -396 415 -667 439 -1939
611 -2881 389 -177 -42 -444 -128 -566 -182 -131 -58 -291 -136 -322 -156 -19
-13 -43 -23 -53 -23 -21 0 -107 48 -107 60 0 32 556 333 766 413 165 64 340
98 586 117 79 5 163 12 188 14 69 5 447 -4 615 -15z m4465 -104 l33 -34 -27
-11 c-15 -5 -33 -10 -39 -10 -7 0 -47 -18 -90 -39 -42 -22 -74 -34 -70 -27 16
27 138 155 149 156 5 0 25 -16 44 -35z m-25 -189 c-32 -45 -60 -73 -88 -88
-51 -26 -171 -115 -211 -157 -17 -17 -37 -31 -46 -31 -8 0 -49 -16 -89 -35
-41 -20 -81 -35 -88 -33 -8 2 34 51 99 117 95 97 127 122 203 162 50 25 128
67 175 92 47 25 86 44 88 42 2 -1 -18 -33 -43 -69z m-6547 -14 l20 -52 -26
-19 c-15 -10 -47 -28 -70 -40 l-44 -22 7 22 c9 27 86 171 90 167 2 -2 12 -27
23 -56z m4861 -422 c0 -95 0 -95 -16 -60 -66 146 -85 180 -103 180 -29 0 -33
-31 -25 -182 l7 -138 -33 -17 c-17 -10 -47 -30 -64 -45 -18 -16 -36 -28 -39
-28 -4 0 -14 17 -22 37 -37 87 -148 204 -295 310 -27 19 -49 38 -49 43 0 4 57
10 128 14 136 8 378 31 452 44 l45 8 7 -36 c4 -19 7 -78 7 -130z m184 -230
c84 -21 168 -70 189 -108 8 -15 13 -56 12 -101 -1 -89 -29 -167 -93 -259 -51
-73 -84 -97 -164 -123 -62 -20 -342 -59 -407 -57 -46 2 -133 -53 -223 -140
-54 -53 -70 -64 -77 -52 -4 8 -22 32 -39 54 -17 21 -31 46 -31 55 0 21 49 124
100 210 22 38 77 105 121 149 70 70 80 85 75 106 -5 22 6 38 81 115 94 95 153
132 251 155 79 20 117 19 205 -4z m-2569 -246 c9 -3 13 -10 10 -16 -14 -22
-35 -137 -49 -272 -19 -187 -20 -276 0 -302 14 -19 15 -18 34 6 28 35 50 202
55 410 l4 175 154 -2 c210 -2 424 -31 588 -79 327 -97 489 -179 717 -362 174
-141 310 -307 347 -426 38 -121 -4 -250 -120 -363 -72 -71 -211 -144 -389
-206 -312 -108 -806 -160 -1200 -127 -457 39 -860 164 -1095 341 -168 127
-244 258 -243 419 0 103 24 183 79 266 77 118 276 293 433 382 77 43 245 105
344 127 115 25 299 41 331 29z m2541 -522 c17 -87 48 -187 64 -206 5 -6 23
-45 40 -86 127 -306 524 -860 870 -1212 179 -183 163 -183 -59 1 -127 105
-364 338 -456 446 -32 39 -77 88 -99 110 -94 94 -185 224 -289 412 -107 193
-188 441 -183 556 l2 55 40 9 c22 5 43 7 47 4 3 -3 14 -44 23 -89z m-195 10
c0 -57 55 -263 99 -375 95 -239 305 -566 502 -780 l62 -68 -21 -37 c-18 -33
-19 -39 -6 -57 9 -12 24 -19 37 -17 18 2 19 1 7 -7 -8 -6 -10 -11 -4 -11 5 0
15 5 21 11 16 16 36 -33 69 -161 37 -144 41 -186 19 -211 -10 -10 -24 -19 -31
-19 -19 0 -22 -32 -6 -57 16 -26 53 -30 76 -8 13 13 17 9 36 -43 15 -38 20
-71 17 -99 -4 -37 0 -47 24 -73 16 -16 29 -40 29 -52 0 -13 10 -43 21 -68 12
-25 46 -119 76 -210 31 -91 59 -173 64 -182 8 -14 -8 -26 -98 -71 -60 -30
-133 -69 -163 -88 -46 -27 -72 -35 -160 -45 -158 -19 -239 -18 -247 4 -61 181
-173 337 -357 499 -99 88 -309 203 -448 245 -98 30 -165 27 -262 -11 -42 -17
-78 -31 -80 -31 -2 0 -6 25 -8 56 -5 60 -31 103 -44 70 -6 -16 -1 -105 7 -135
3 -8 -43 -41 -127 -90 -204 -119 -280 -170 -408 -277 -180 -149 -249 -217
-291 -289 l-38 -65 -58 0 c-141 0 -615 53 -809 90 -58 11 -166 31 -240 45
-182 33 -364 80 -425 110 -27 14 -106 61 -175 105 -132 85 -573 310 -608 310
-11 0 -23 4 -26 8 -7 11 87 416 107 465 9 21 42 76 74 123 174 256 382 609
398 677 4 15 12 30 17 33 5 3 35 -12 66 -34 77 -53 237 -132 347 -170 203 -70
312 -96 578 -142 163 -27 197 -30 411 -30 408 0 705 42 999 140 223 75 342
142 458 260 91 92 128 168 136 281 7 97 1 122 -60 252 l-41 88 52 52 c29 29
78 68 108 87 51 31 66 35 158 40 187 12 166 17 166 -38z m720 -1298 c0 -16
-16 -19 -25 -4 -8 13 4 32 16 25 5 -4 9 -13 9 -21z m110 -444 c0 -15 -7 -20
-27 -20 -25 0 -26 0 -8 20 10 11 22 20 27 20 4 0 8 -9 8 -20z m-1186 -326
c199 -101 349 -213 496 -374 131 -143 150 -171 186 -277 l34 -98 97 -5 98 -5
-110 -56 c-164 -84 -152 -85 -147 15 6 105 -10 153 -75 238 -156 204 -477 472
-614 512 -63 19 -137 2 -269 -60 -125 -59 -162 -83 -375 -242 -205 -154 -258
-201 -322 -291 -58 -80 -72 -119 -73 -198 0 -34 -4 -64 -8 -67 -9 -5 -597 58
-677 73 -27 5 -72 13 -100 16 -93 12 -279 53 -356 78 -64 21 -249 104 -249
112 0 4 81 -13 220 -45 129 -30 291 -59 370 -65 25 -2 110 -13 190 -25 144
-22 415 -36 437 -22 6 4 21 31 32 60 22 54 45 95 71 124 30 33 286 240 372
301 260 184 564 354 637 356 12 1 73 -24 135 -55z m44 -166 c362 -305 402
-346 483 -489 l42 -74 -11 -75 c-6 -48 -7 -81 -1 -92 10 -19 4 -38 -12 -38 -5
0 -9 13 -9 28 0 163 -272 490 -541 651 -66 39 -78 43 -121 38 -119 -15 -390
-179 -539 -330 -124 -124 -177 -237 -186 -394 -4 -61 -10 -97 -20 -104 -24
-20 -358 -23 -523 -5 -128 14 -162 22 -288 68 -78 28 -140 53 -138 55 2 2 57
-5 122 -17 66 -11 196 -25 290 -30 94 -5 213 -14 264 -21 92 -11 95 -11 112
12 12 14 18 36 17 63 -2 48 24 154 51 205 51 98 437 404 660 522 68 36 223
107 238 108 7 1 57 -36 110 -81z m1825 -318 c13 -11 28 -31 31 -46 7 -28 -10
-94 -24 -94 -5 0 -15 -3 -23 -6 -10 -4 -26 15 -51 60 -20 36 -41 68 -46 71
-17 10 -11 23 13 28 49 9 75 6 100 -13z m-5546 -347 c-3 -2 -18 -8 -36 -13
l-31 -9 0 40 0 40 35 -27 c20 -15 34 -29 32 -31z"/>
<path d="M8430 9235 c-81 -60 -112 -148 -130 -370 -6 -77 -16 -171 -22 -210
-16 -109 -22 -876 -8 -1024 16 -182 67 -395 118 -496 28 -56 93 -133 122 -145
30 -13 52 -8 116 22 48 23 81 115 94 268 5 58 14 146 21 195 17 136 15 671 -5
900 -30 343 -99 719 -149 808 -23 40 -72 77 -104 77 -10 0 -34 -11 -53 -25z"/>
<path d="M5918 9039 c-48 -35 -88 -107 -113 -203 -54 -205 -105 -614 -105
-847 0 -237 34 -624 71 -819 26 -130 104 -334 147 -383 18 -20 92 -57 115 -57
23 0 91 59 110 96 60 116 82 346 73 754 -11 493 -26 725 -66 1035 -27 202 -36
241 -69 311 -55 113 -111 152 -163 113z"/>
<path d="M8006 5260 c-88 -9 -142 -38 -183 -99 -40 -59 -26 -199 26 -263 44
-54 58 -66 70 -59 16 10 7 45 -21 81 -26 33 -48 86 -54 130 -12 83 42 133 173
161 49 10 104 22 123 27 l35 9 -28 12 c-16 6 -36 10 -45 10 -9 -1 -52 -5 -96
-9z"/>
<path d="M8222 5120 c0 -14 2 -19 5 -12 2 6 2 18 0 25 -3 6 -5 1 -5 -13z"/>
<path d="M8225 5068 c-2 -7 -6 -37 -10 -67 -3 -30 -12 -69 -20 -87 -12 -28
-11 -32 1 -27 9 3 14 -2 14 -13 1 -36 50 95 56 150 6 53 6 56 -15 56 -12 0
-23 -6 -26 -12z"/>
<path d="M7996 4973 c-3 -4 -6 -37 -6 -74 0 -69 -11 -93 -29 -62 -8 15 -12 16
-23 5 -11 -11 -8 -17 15 -36 17 -14 29 -33 30 -52 1 -16 7 -32 12 -36 6 -5 5
-8 -2 -8 -14 0 -18 -56 -5 -63 12 -8 51 29 43 42 -4 6 -4 42 1 79 10 78 1 180
-17 198 -7 7 -15 10 -19 7z"/>
<path d="M8170 4845 c0 -9 -4 -13 -10 -10 -5 3 -10 1 -10 -5 0 -6 -12 -27 -27
-46 -19 -26 -23 -38 -15 -46 14 -14 42 9 73 59 19 30 19 34 5 49 -15 14 -16
14 -16 -1z m-40 -85 c0 -5 -5 -10 -11 -10 -5 0 -7 5 -4 10 3 6 8 10 11 10 2 0
4 -4 4 -10z"/>
<path d="M2622 5379 c-19 -30 -8 -34 12 -4 9 14 13 25 9 25 -5 0 -14 -9 -21
-21z"/>
<path d="M7853 3771 c-55 -30 -113 -82 -113 -100 0 -6 -3 -11 -7 -11 -14 0 -7
-91 8 -101 8 -5 15 -4 17 1 2 6 19 10 37 10 53 0 175 127 175 184 0 20 -28 46
-48 46 -9 0 -41 -13 -69 -29z"/>
<path d="M6256 3522 c-23 -45 -49 -255 -43 -349 8 -113 32 -155 55 -95 24 63
35 145 36 267 1 186 -14 243 -48 177z"/>
<path d="M7540 2009 c0 -7 10 -43 22 -81 26 -80 69 -140 88 -121 29 28 -45
205 -87 211 -14 2 -23 -2 -23 -9z"/>
<path d="M5366 1971 c-8 -12 10 -41 25 -41 13 0 11 13 -4 35 -10 13 -16 15
-21 6z"/>
<path d="M7033 1933 c-26 -9 -10 -181 18 -198 5 -4 17 -1 25 6 17 14 14 80 -8
149 -12 41 -19 49 -35 43z"/>
<path d="M8250 1843 c-8 -2 -24 -8 -35 -13 -11 -5 -54 -18 -96 -29 -158 -44
-334 -110 -310 -119 11 -4 11 -6 0 -14 -9 -6 5 -8 42 -4 143 15 484 144 464
176 -6 10 -39 12 -65 3z"/>
<path d="M5540 1815 c0 -8 9 -15 20 -15 13 0 18 5 14 15 -4 8 -12 15 -20 15
-8 0 -14 -7 -14 -15z"/>
<path d="M6082 1667 c-16 -19 1 -33 64 -52 114 -33 278 -43 393 -24 121 19
103 33 -60 49 -199 18 -313 30 -349 36 -25 4 -40 1 -48 -9z"/>
<path d="M5030 1652 c0 -5 9 -20 20 -33 l20 -24 -2 30 c-2 19 -9 31 -20 33
-10 2 -18 -1 -18 -6z"/>
<path d="M7795 1199 c-17 -26 25 -139 51 -139 27 0 24 47 -7 123 -12 28 -33
36 -44 16z"/>
<path d="M8687 1143 c-4 -3 -7 -11 -7 -17 0 -6 5 -5 12 2 6 6 9 14 7 17 -3 3
-9 2 -12 -2z"/>
<path d="M6041 961 c-27 -17 -2 -39 78 -70 179 -69 411 -103 411 -61 0 16 -67
39 -267 91 -213 54 -202 52 -222 40z"/>
<path d="M8335 899 c-141 -25 -264 -56 -281 -70 -11 -9 -11 -14 2 -26 13 -13
28 -13 114 -3 147 17 278 56 317 95 10 11 10 14 -3 19 -20 8 -19 8 -149 -15z"/>
<path d="M11670 7247 c-175 -59 -366 -182 -515 -331 -190 -191 -225 -254 -212
-382 6 -61 -9 -74 -18 -16 -3 20 -9 48 -11 62 -6 24 -6 25 -20 5 -23 -30 -109
-202 -138 -274 -14 -35 -40 -112 -57 -170 -84 -293 -28 -666 127 -831 24 -26
44 -51 44 -56 0 -5 -14 -18 -31 -28 -130 -77 -357 -298 -458 -446 -223 -326
-278 -673 -161 -1018 45 -134 86 -200 189 -303 131 -132 290 -218 462 -250 89
-16 270 -14 356 5 99 21 227 74 324 132 87 52 267 208 335 290 96 114 228 336
274 459 4 11 12 32 18 47 23 57 74 245 88 322 18 105 18 246 -1 390 -25 193
-94 339 -212 446 -135 124 -337 171 -583 136 -63 -9 -119 -16 -126 -16 -12 0
-11 30 1 72 18 62 21 58 -44 58 -34 0 -61 3 -61 8 0 4 24 18 53 32 105 50 193
151 231 267 29 90 63 263 101 513 70 460 120 629 242 807 30 44 52 86 49 92
-15 24 -147 12 -246 -22z m168 -1922 c106 -37 201 -107 252 -187 71 -109 110
-282 110 -490 0 -114 -3 -138 -34 -245 -86 -297 -224 -565 -372 -723 -100
-105 -339 -258 -509 -325 -113 -44 -166 -55 -270 -55 -124 0 -227 24 -328 77
-370 194 -516 619 -366 1067 39 118 118 270 192 369 62 84 199 227 217 227 5
0 10 -21 10 -48 0 -49 43 -233 81 -345 12 -34 47 -146 80 -249 60 -193 91
-268 111 -268 17 0 3 202 -20 285 -61 219 -196 631 -210 642 -15 12 -14 16 18
44 49 42 255 143 337 164 37 10 83 24 101 32 83 36 269 63 414 59 86 -3 123
-9 186 -31z"/>
<path d="M11204 5264 c-15 -6 -11 -22 75 -362 78 -310 102 -373 134 -364 18 5
19 11 13 90 -9 123 -41 267 -92 422 -61 185 -89 231 -130 214z"/>
<path d="M10169 1273 c-13 -16 -12 -17 4 -4 9 7 17 15 17 17 0 8 -8 3 -21 -13z"/>
<path d="M9971 1273 c-1 -6 -4 -20 -7 -30 -5 -17 -5 -17 6 0 6 10 9 23 6 30
-3 9 -5 9 -5 0z"/>
<path d="M10136 1235 c-3 -8 -1 -15 4 -15 6 0 10 7 10 15 0 8 -2 15 -4 15 -2
0 -6 -7 -10 -15z"/>
<path d="M9924 1200 c1 -8 10 -16 21 -17 15 -1 15 0 3 3 -9 3 -19 11 -21 17
-2 7 -3 5 -3 -3z"/>
<path d="M10286 1197 c3 -10 9 -15 12 -12 3 3 0 11 -7 18 -10 9 -11 8 -5 -6z"/>
<path d="M10390 1200 c0 -5 5 -10 11 -10 5 0 7 5 4 10 -3 6 -8 10 -11 10 -2 0
-4 -4 -4 -10z"/>
<path d="M10125 1180 c3 -5 10 -10 16 -10 5 0 9 5 9 10 0 6 -7 10 -16 10 -8 0
-12 -4 -9 -10z"/>
<path d="M10365 1180 c-3 -5 -1 -10 4 -10 6 0 11 5 11 10 0 6 -2 10 -4 10 -3
0 -8 -4 -11 -10z"/>
<path d="M10690 1176 c0 -2 9 -6 20 -9 11 -3 18 -1 14 4 -5 9 -34 13 -34 5z"/>
<path d="M10272 1140 c0 -14 2 -19 5 -12 2 6 2 18 0 25 -3 6 -5 1 -5 -13z"/>
<path d="M10292 1140 c0 -14 2 -19 5 -12 2 6 2 18 0 25 -3 6 -5 1 -5 -13z"/>
<path d="M10470 1116 c7 -7 14 -6 21 1 9 9 7 12 -9 10 -14 -1 -18 -5 -12 -11z"/>
<path d="M10508 1103 c7 -3 16 -2 19 1 4 3 -2 6 -13 5 -11 0 -14 -3 -6 -6z"/>
<path d="M10835 1100 c-3 -5 -1 -10 4 -10 6 0 11 5 11 10 0 6 -2 10 -4 10 -3
0 -8 -4 -11 -10z"/>
<path d="M10376 1051 c10 -10 21 -14 23 -8 4 10 -17 27 -33 27 -5 0 -1 -8 10
-19z"/>
<path d="M10950 1060 c0 -5 5 -10 11 -10 5 0 7 -5 3 -12 -4 -7 -3 -8 4 -4 6 4
9 13 5 21 -6 17 -23 20 -23 5z"/>
<path d="M10808 1053 c7 -3 16 -2 19 1 4 3 -2 6 -13 5 -11 0 -14 -3 -6 -6z"/>
<path d="M10872 1040 c0 -14 2 -19 5 -12 2 6 2 18 0 25 -3 6 -5 1 -5 -13z"/>
<path d="M10790 1021 c0 -5 5 -13 10 -16 6 -3 10 -2 10 4 0 5 -4 13 -10 16 -5
3 -10 2 -10 -4z"/>
<path d="M10978 969 c3 -21 7 -27 13 -18 4 7 3 21 -2 31 -14 25 -16 23 -11
-13z"/>
<path d="M10666 958 c3 -5 10 -6 15 -3 13 9 11 12 -6 12 -8 0 -12 -4 -9 -9z"/>
<path d="M11001 900 c0 -14 8 -36 19 -50 17 -21 21 -23 30 -10 5 8 9 26 9 40
-1 23 -2 23 -9 -5 -4 -16 -8 -24 -9 -17 0 7 -5 11 -11 7 -5 -3 -14 9 -19 27
-8 29 -9 30 -10 8z"/>
</g>
</svg>
